<svg width="108" height="80" viewBox="0 0 108 80" fill="none" xmlns="http://www.w3.org/2000/svg">
<path d="M60.0684 20.7743L66.8971 22.0373L72.3411 17.5932L71.2504 24.2641L35.4724 17.8704L28.16 53.6468L58.4814 28.9035L51.6526 27.6405L36.3386 40.1381L39.6392 23.9838L75.6227 30.4121L79.84 4.63889L60.0684 20.7743Z" fill="url(#paint0_linear_8161_55775)"/>
<path d="M26.2644 57.6476V60.822C26.2644 61.0318 26.0914 61.2037 25.8752 61.2037H20.0865C19.8725 61.2037 19.6973 61.3734 19.6973 61.5854V74.9593C19.6973 75.1691 19.5243 75.341 19.308 75.341H15.7183C15.5043 75.341 15.329 75.1714 15.329 74.9593V61.5854C15.329 61.3756 15.156 61.2037 14.9398 61.2037H9.15114C8.93717 61.2037 8.76191 61.034 8.76191 60.822V57.6476C8.76191 57.4378 8.9349 57.2659 9.15114 57.2659H25.8729C26.0914 57.2659 26.2644 57.4378 26.2644 57.6476ZM45.0029 57.2659H41.4132C41.1992 57.2659 41.0239 57.4355 41.0239 57.6476V62.5967C41.0239 62.7686 40.9078 62.9181 40.7394 62.9628L32.094 65.2978C31.8459 65.3648 31.6023 65.1817 31.6023 64.9317V57.6476C31.6023 57.4378 31.4293 57.2659 31.2131 57.2659H27.6233C27.4094 57.2659 27.2341 57.4355 27.2341 57.6476V74.9705C27.2341 75.1803 27.4071 75.3522 27.6233 75.3522H31.2131C31.427 75.3522 31.6023 75.1825 31.6023 74.9705V70.1643C31.6023 69.9924 31.7184 69.8428 31.8869 69.7982L40.5322 67.4631C40.7804 67.3962 41.0239 67.5792 41.0239 67.8292V74.9705C41.0239 75.1803 41.1969 75.3522 41.4132 75.3522H45.0029C45.2169 75.3522 45.3922 75.1825 45.3922 74.9705V57.6476C45.3922 57.4378 45.2169 57.2659 45.0029 57.2659ZM98.8511 71.3965H90.0145C89.8005 71.3965 89.6253 71.2269 89.6253 71.0148V57.6655C89.6253 57.4556 89.4523 57.2837 89.236 57.2837H85.7009C85.4869 57.2837 85.3117 57.4534 85.3117 57.6655V74.9794C85.3117 75.1892 85.4847 75.3611 85.7009 75.3611H98.8488C99.0628 75.3611 99.2381 75.1915 99.2381 74.9794V71.776C99.2403 71.5662 99.0651 71.3965 98.8511 71.3965ZM83.955 57.2681H80.0102C79.8804 57.2681 79.7575 57.3329 79.6869 57.4422L76.3681 62.4471L74.6768 64.9942C74.5243 65.2241 74.1805 65.2241 74.0257 64.9942L72.2867 62.3712L69.0156 57.44C68.9428 57.3306 68.8221 57.2659 68.6901 57.2659H64.7475C64.438 57.2659 64.2513 57.6007 64.422 57.8552L72.2252 69.6173C72.2662 69.6776 72.2867 69.7513 72.2867 69.8249V74.9347C72.2867 75.1446 72.4597 75.3165 72.6759 75.3165H75.9811C76.1951 75.3165 76.3703 75.1446 76.3703 74.9347V69.9009C76.3703 69.8272 76.3931 69.7558 76.4341 69.6932L76.7869 69.1642L76.7915 69.1575L84.2851 57.8552C84.4489 57.603 84.2623 57.2681 83.955 57.2681ZM64.6975 60.1076C64.6997 60.1143 64.6997 60.1166 64.6997 60.1233V60.1121L64.6975 60.1076ZM65.6513 75.3165L65.5989 75.35H60.6024C60.4749 75.35 60.3543 75.2875 60.2814 75.1825L56.2182 69.3138C56.1249 69.1776 55.9542 69.1173 55.7926 69.162L51.0123 70.4522C50.8439 70.4969 50.7278 70.6487 50.7278 70.8206V74.9727C50.7278 75.1825 50.5548 75.3544 50.3386 75.3544H46.7488C46.5349 75.3544 46.3596 75.1825 46.3596 74.9727V57.6521C46.3596 57.44 46.5349 57.2703 46.7488 57.2703H62.6329C62.7649 57.2703 62.8878 57.3373 62.9606 57.4467C63.5229 58.3128 64.0851 59.1812 64.6451 60.0474C64.6838 60.1076 64.7066 60.1791 64.7066 60.2505C64.7066 62.3221 64.7066 64.3937 64.7066 66.4675C64.7066 66.6394 64.5905 66.789 64.422 66.8359L61.0349 67.7489C60.7777 67.8203 60.6662 68.115 60.8164 68.3315L61.3718 69.1329L65.6513 75.3165ZM60.3406 61.5988C60.3406 61.3868 60.1676 61.2171 59.9514 61.2171H51.117C50.9031 61.2171 50.7278 61.3868 50.7278 61.5988V65.876C50.7278 66.1282 50.9714 66.309 51.2195 66.2443L54.7409 65.2933L60.0561 63.8579C60.2245 63.8133 60.3406 63.6615 60.3406 63.4896V61.5988ZM64.6975 60.1076C64.6997 60.1143 64.6997 60.1166 64.6997 60.1233V60.1121L64.6975 60.1076Z" fill="url(#paint1_linear_8161_55775)"/>
<defs>
<linearGradient id="paint0_linear_8161_55775" x1="27.0455" y1="52.5376" x2="77.2898" y2="2.10463" gradientUnits="userSpaceOnUse">
<stop stop-color="#FE5E2C"/>
<stop offset="0.0685" stop-color="#FE5C32"/>
<stop offset="0.1613" stop-color="#FE5543"/>
<stop offset="0.2681" stop-color="#FE4A60"/>
<stop offset="0.3854" stop-color="#FE3A88"/>
<stop offset="0.5098" stop-color="#FE27BA"/>
<stop offset="0.5503" stop-color="#FE20CC"/>
<stop offset="0.5738" stop-color="#F227CE"/>
<stop offset="0.7848" stop-color="#8C64E0"/>
<stop offset="0.9312" stop-color="#4C8AEB"/>
<stop offset="1" stop-color="#3399EF"/>
</linearGradient>
<linearGradient id="paint1_linear_8161_55775" x1="30.1805" y1="89.6764" x2="75.4043" y2="43.5617" gradientUnits="userSpaceOnUse">
<stop stop-color="#FE5E2C"/>
<stop offset="0.0685" stop-color="#FE5C32"/>
<stop offset="0.1613" stop-color="#FE5543"/>
<stop offset="0.2681" stop-color="#FE4A60"/>
<stop offset="0.3854" stop-color="#FE3A88"/>
<stop offset="0.5098" stop-color="#FE27BA"/>
<stop offset="0.5503" stop-color="#FE20CC"/>
<stop offset="0.6074" stop-color="#EB2BCF"/>
<stop offset="0.7229" stop-color="#BB48D8"/>
<stop offset="0.8846" stop-color="#6E76E5"/>
<stop offset="1" stop-color="#3399EF"/>
</linearGradient>
</defs>
</svg>
